<svg xmlns="http://www.w3.org/2000/svg" viewBox="0 0 256 256" role="img" aria-labelledby="title desc">
  <title id="title">Florida lots logo</title>
  <desc id="desc">A Florida land-sale mark with a sun, parcel rows, and a location pin.</desc>
  <defs>
    <linearGradient id="sky" x1="44" y1="20" x2="212" y2="232" gradientUnits="userSpaceOnUse">
      <stop stop-color="#ECFEFF"/>
      <stop offset="1" stop-color="#D1FAE5"/>
    </linearGradient>
    <linearGradient id="land" x1="48" y1="170" x2="218" y2="206" gradientUnits="userSpaceOnUse">
      <stop stop-color="#10B981"/>
      <stop offset="1" stop-color="#0E7490"/>
    </linearGradient>
    <filter id="shadow" x="30" y="20" width="205" height="215" color-interpolation-filters="sRGB" filterUnits="userSpaceOnUse">
      <feDropShadow dx="0" dy="8" flood-color="#0F172A" flood-opacity=".18" stdDeviation="8"/>
    </filter>
  </defs>
  <rect width="256" height="256" rx="68" fill="url(#sky)"/>
  <circle cx="72" cy="66" r="28" fill="#FBBF24"/>
  <g filter="url(#shadow)">
    <path
      d="M127 39c16 4 27 14 34 29 5 12 14 18 27 19 8 1 12 7 9 14l-7 17c-3 8 0 18 7 22 9 5 14 16 10 26l-10 25c-2 6-8 10-14 10h-31c-8 0-15-5-18-12l-24-58c-5-12-13-21-25-27-7-4-9-13-3-19l24-39c5-8 13-11 21-8Z"
      fill="#047857"
    />
    <path
      d="M143 54c9 4 16 12 20 21 6 14 18 24 34 26l-5 13c-4 10 0 22 9 29 5 4 7 10 5 16l-9 23c-2 5-7 8-12 8h-23c-6 0-12-4-14-10l-23-55c-5-13-14-23-26-31l21-34c5-7 14-10 23-6Z"
      fill="#34D399"
      opacity=".55"
    />
    <path
      d="M56 173c39-28 84-40 134-34 16 2 28 9 36 21-22 36-57 55-106 55-35 0-63-14-84-42 6 2 13 2 20 0Z"
      fill="url(#land)"
    />
    <path
      d="M59 174c42-13 90-12 146 5M80 195c33-13 70-17 112-10M113 213c23-10 47-15 73-15"
      fill="none"
      stroke="#ECFEFF"
      stroke-linecap="round"
      stroke-width="9"
    />
    <path
      d="M134 151c0-18 15-33 33-33s33 15 33 33c0 23-33 55-33 55s-33-32-33-55Z"
      fill="#0F172A"
    />
    <circle cx="167" cy="151" r="13" fill="#F8FAFC"/>
  </g>
</svg>
