<svg width="500" height="420" viewBox="0 0 500 420" fill="none" xmlns="http://www.w3.org/2000/svg" role="img" aria-labelledby="title desc">
  <title id="title">PalmLand primary logo dark</title>
  <desc id="desc">Premium PalmLand estate seal with a restrained palm, coastline, and surveyed land mark above a refined wordmark for dark backgrounds.</desc>
  <circle cx="250" cy="146" r="111" stroke="#F4EBDD" stroke-width="4"/>
  <circle cx="250" cy="146" r="96" stroke="#D9B16E" stroke-width="1.6"/>
  <path d="M160 168C197 149 227 151 255 166C286 183 321 178 356 154" stroke="#D9B16E" stroke-width="4.5" stroke-linecap="round"/>
  <path d="M156 196C197 178 238 178 284 194C313 204 339 205 366 197V227C306 263 211 263 156 227V196Z" fill="#6F8F3A"/>
  <path d="M176 208C224 191 282 194 351 215" stroke="#15110C" stroke-width="5" stroke-linecap="round"/>
  <path d="M220 244C238 220 260 202 286 190" stroke="#15110C" stroke-width="5" stroke-linecap="round"/>
  <path d="M288 255C301 231 322 213 350 200" stroke="#15110C" stroke-width="5" stroke-linecap="round"/>
  <path d="M213 187C221 162 223 136 219 108" stroke="#F4EBDD" stroke-width="6" stroke-linecap="round"/>
  <path d="M219 109C196 105 178 113 165 131C187 132 205 126 219 109Z" fill="#F4EBDD"/>
  <path d="M219 109C205 88 184 79 160 83C176 101 195 110 219 109Z" fill="#F4EBDD"/>
  <path d="M219 109C232 88 253 78 278 80C263 100 244 110 219 109Z" fill="#F4EBDD"/>
  <path d="M219 109C241 105 261 113 276 132C252 132 233 126 219 109Z" fill="#F4EBDD"/>
  <path d="M136 278H364" stroke="#D9B16E" stroke-width="1.4"/>
  <text x="250" y="348" text-anchor="middle" fill="#F4EBDD" font-family="Playfair Display, Georgia, serif" font-size="58" font-weight="500" letter-spacing="-1.6">PalmLand</text>
  <text x="250" y="382" text-anchor="middle" fill="#D9B16E" font-family="Inter, Arial, sans-serif" font-size="11" font-weight="700" letter-spacing="4.6">FLORIDA LAND INVESTMENT</text>
</svg>
