<svg width="760" height="220" viewBox="0 0 760 220" fill="none" xmlns="http://www.w3.org/2000/svg" role="img" aria-labelledby="title desc">
  <title id="title">PalmLand horizontal logo light</title>
  <desc id="desc">Horizontal PalmLand logo with a restrained estate seal and refined wordmark.</desc>
  <g transform="translate(34 16) scale(0.72)">
    <circle cx="128" cy="106" r="82" stroke="#102F26" stroke-width="3.2"/>
    <circle cx="128" cy="106" r="70" stroke="#B88A3C" stroke-width="1.3"/>
    <path d="M62 122C89 108 111 109 132 120C155 132 181 129 207 111" stroke="#B88A3C" stroke-width="3.6" stroke-linecap="round"/>
    <path d="M59 142C89 129 119 129 153 141C174 148 194 149 214 143V165C170 191 100 191 59 165V142Z" fill="#102F26"/>
    <path d="M74 151C109 139 152 141 203 156" stroke="#F4EBDD" stroke-width="4" stroke-linecap="round"/>
    <path d="M106 177C119 159 135 146 154 138" stroke="#F4EBDD" stroke-width="4" stroke-linecap="round"/>
    <path d="M156 185C166 167 181 154 202 144" stroke="#F4EBDD" stroke-width="4" stroke-linecap="round"/>
    <path d="M101 136C107 118 108 99 105 78" stroke="#102F26" stroke-width="5" stroke-linecap="round"/>
    <path d="M105 79C88 76 75 82 65 95C81 96 95 92 105 79Z" fill="#102F26"/>
    <path d="M105 79C95 64 80 57 62 60C74 73 88 80 105 79Z" fill="#102F26"/>
    <path d="M105 79C115 64 130 56 148 58C137 73 123 80 105 79Z" fill="#102F26"/>
    <path d="M105 79C122 76 136 82 147 96C130 96 116 92 105 79Z" fill="#102F26"/>
  </g>
  <path d="M254 48V172" stroke="#B88A3C" stroke-width="1.4"/>
  <text x="300" y="102" fill="#10231D" font-family="Playfair Display, Georgia, serif" font-size="62" font-weight="500" letter-spacing="-1.7">PalmLand</text>
  <text x="304" y="139" fill="#7A673C" font-family="Inter, Arial, sans-serif" font-size="12" font-weight="700" letter-spacing="4.8">FLORIDA LAND INVESTMENT</text>
</svg>
