<svg width="520" height="430" viewBox="0 0 520 430" fill="none" xmlns="http://www.w3.org/2000/svg" role="img" aria-labelledby="title desc">
  <title id="title">PalmLand main logo light</title>
  <desc id="desc">Premium PalmLand logo with an original palm, coastline horizon, and land parcel geometry above a refined wordmark.</desc>
  <g transform="translate(156 22)">
    <circle cx="104" cy="104" r="93" stroke="#102F26" stroke-width="4"/>
    <circle cx="104" cy="104" r="77" stroke="#C7A15A" stroke-width="1.6"/>
    <path d="M44 117C70 101 96 100 122 113C145 125 166 125 188 112" stroke="#C7A15A" stroke-width="4.5" stroke-linecap="round"/>
    <path d="M48 144H182" stroke="#102F26" stroke-width="4" stroke-linecap="round"/>
    <path d="M68 179L104 144L140 179" stroke="#102F26" stroke-width="4" stroke-linecap="round" stroke-linejoin="round"/>
    <path d="M104 144V190" stroke="#C7A15A" stroke-width="4" stroke-linecap="round"/>
    <path d="M78 190H158" stroke="#102F26" stroke-width="4" stroke-linecap="round"/>
    <path d="M104 128C111 104 112 82 108 58" stroke="#102F26" stroke-width="5" stroke-linecap="round"/>
    <path d="M108 60C89 57 74 64 64 79C82 80 97 74 108 60Z" fill="#102F26"/>
    <path d="M108 60C97 43 80 36 61 40C74 54 89 61 108 60Z" fill="#102F26"/>
    <path d="M108 60C119 43 136 36 156 39C143 54 128 61 108 60Z" fill="#102F26"/>
    <path d="M108 60C126 57 143 64 154 80C135 80 120 74 108 60Z" fill="#102F26"/>
  </g>
  <path d="M170 258H350" stroke="#C7A15A" stroke-width="1.4"/>
  <text x="260" y="330" text-anchor="middle" fill="#10231D" font-family="Playfair Display, Georgia, serif" font-size="64" font-weight="500" letter-spacing="-1.8">PalmLand</text>
  <text x="260" y="368" text-anchor="middle" fill="#77623A" font-family="Inter, Arial, sans-serif" font-size="12" font-weight="700" letter-spacing="5">FLORIDA LAND INVESTMENT</text>
</svg>
