<svg width="256" height="256" viewBox="0 0 256 256" fill="none" xmlns="http://www.w3.org/2000/svg" role="img" aria-labelledby="title desc">
  <title id="title">PalmLand icon light</title>
  <desc id="desc">Premium icon-only PalmLand estate seal with restrained palm, coastline, and surveyed land mark.</desc>
  <circle cx="128" cy="128" r="109" stroke="#102F26" stroke-width="5"/>
  <circle cx="128" cy="128" r="93" stroke="#B88A3C" stroke-width="2"/>
  <path d="M42 147C78 128 107 130 134 144C165 161 198 156 232 133" stroke="#B88A3C" stroke-width="5" stroke-linecap="round"/>
  <path d="M39 175C79 157 120 158 165 173C193 183 218 184 244 176V203C186 238 92 239 39 203V175Z" fill="#102F26"/>
  <path d="M58 187C105 171 162 174 229 194" stroke="#F4EBDD" stroke-width="6" stroke-linecap="round"/>
  <path d="M101 225C119 201 140 184 166 172" stroke="#F4EBDD" stroke-width="6" stroke-linecap="round"/>
  <path d="M168 236C181 212 202 195 229 182" stroke="#F4EBDD" stroke-width="6" stroke-linecap="round"/>
  <path d="M91 166C99 141 101 115 97 87" stroke="#102F26" stroke-width="7" stroke-linecap="round"/>
  <path d="M97 88C74 84 56 92 43 110C65 111 83 105 97 88Z" fill="#102F26"/>
  <path d="M97 88C83 67 62 58 38 62C54 80 73 89 97 88Z" fill="#102F26"/>
  <path d="M97 88C110 67 131 57 156 59C141 79 122 89 97 88Z" fill="#102F26"/>
  <path d="M97 88C119 84 139 92 154 111C130 111 111 105 97 88Z" fill="#102F26"/>
</svg>
