<svg width="256" height="256" viewBox="0 0 256 256" fill="none" xmlns="http://www.w3.org/2000/svg" role="img" aria-labelledby="title desc">
  <title id="title">PalmLand icon dark</title>
  <desc id="desc">Icon-only PalmLand mark with a refined palm, coastline horizon, and land parcel geometry for dark backgrounds.</desc>
  <circle cx="128" cy="128" r="112" stroke="#F4EBDD" stroke-width="6"/>
  <circle cx="128" cy="128" r="92" stroke="#D9B16E" stroke-width="2"/>
  <path d="M56 143C87 124 118 123 149 139C177 153 201 153 228 137" stroke="#D9B16E" stroke-width="6" stroke-linecap="round"/>
  <path d="M61 176H222" stroke="#F4EBDD" stroke-width="6" stroke-linecap="round"/>
  <path d="M85 218L128 176L171 218" stroke="#F4EBDD" stroke-width="6" stroke-linecap="round" stroke-linejoin="round"/>
  <path d="M128 176V231" stroke="#D9B16E" stroke-width="6" stroke-linecap="round"/>
  <path d="M97 231H193" stroke="#F4EBDD" stroke-width="6" stroke-linecap="round"/>
  <path d="M128 155C137 126 139 99 134 70" stroke="#F4EBDD" stroke-width="7" stroke-linecap="round"/>
  <path d="M134 72C111 68 92 76 79 94C101 95 119 89 134 72Z" fill="#F4EBDD"/>
  <path d="M134 72C120 51 99 43 76 47C92 64 111 73 134 72Z" fill="#F4EBDD"/>
  <path d="M134 72C148 51 169 43 193 47C177 64 158 73 134 72Z" fill="#F4EBDD"/>
  <path d="M134 72C157 68 177 76 191 95C168 95 149 89 134 72Z" fill="#F4EBDD"/>
</svg>
