<svg width="256" height="256" viewBox="0 0 256 256" fill="none" xmlns="http://www.w3.org/2000/svg" role="img" aria-labelledby="title desc">
  <title id="title">PalmLand favicon</title>
  <desc id="desc">Compact PalmLand mark for favicon and small social avatar use.</desc>
  <rect width="256" height="256" rx="56" fill="#102F26"/>
  <circle cx="128" cy="128" r="92" stroke="#D9B16E" stroke-width="6"/>
  <path d="M58 143C89 125 119 124 149 139C177 153 201 153 226 138" stroke="#D9B16E" stroke-width="7" stroke-linecap="round"/>
  <path d="M63 176H220" stroke="#F4EBDD" stroke-width="7" stroke-linecap="round"/>
  <path d="M88 218L128 176L168 218" stroke="#F4EBDD" stroke-width="7" stroke-linecap="round" stroke-linejoin="round"/>
  <path d="M128 176V229" stroke="#D9B16E" stroke-width="7" stroke-linecap="round"/>
  <path d="M128 155C137 126 139 99 134 70" stroke="#F4EBDD" stroke-width="8" stroke-linecap="round"/>
  <path d="M134 72C112 68 94 76 81 94C102 95 120 89 134 72Z" fill="#F4EBDD"/>
  <path d="M134 72C121 52 101 44 79 48C94 64 112 73 134 72Z" fill="#F4EBDD"/>
  <path d="M134 72C147 52 167 44 190 48C175 64 156 73 134 72Z" fill="#F4EBDD"/>
  <path d="M134 72C156 68 175 76 188 95C167 95 148 89 134 72Z" fill="#F4EBDD"/>
</svg>
